<svg xmlns="http://www.w3.org/2000/svg" width="55" height="55" viewBox="0 0 55 55">
  <metadata><?xpacket begin="﻿" id="W5M0MpCehiHzreSzNTczkc9d"?>
<x:xmpmeta xmlns:x="adobe:ns:meta/" x:xmptk="Adobe XMP Core 5.6-c140 79.160451, 2017/05/06-01:08:21        ">
   <rdf:RDF xmlns:rdf="http://www.w3.org/1999/02/22-rdf-syntax-ns#">
      <rdf:Description rdf:about=""/>
   </rdf:RDF>
</x:xmpmeta>
                                                                                                    
                                                                                                    
                                                                                                    
                                                                                                    
                                                                                                    
                                                                                                    
                                                                                                    
                                                                                                    
                                                                                                    
                                                                                                    
                                                                                                    
                                                                                                    
                                                                                                    
                                                                                                    
                                                                                                    
                                                                                                    
                                                                                                    
                                                                                                    
                                                                                                    
                                                                                                    
                           
<?xpacket end="w"?></metadata>
<defs>
    <style>
      .cls-1 {
        fill: #fff;
        fill-rule: evenodd;
      }
    </style>
  </defs>
  <path id="icon_LI" class="cls-1" d="M43,61H98v55H43V61ZM63.952,97.934V82.166h-4.9V97.934h4.9ZM61.526,80a2.881,2.881,0,1,0-2-.844A2.738,2.738,0,0,0,61.526,80ZM82.3,97.934V89.285a10.666,10.666,0,0,0-1.055-5.379q-1.371-2.162-4.8-2.162a5.2,5.2,0,0,0-2.953.844,4.215,4.215,0,0,0-1.687,1.74H71.757V82.166H67.064V97.934h4.852v-7.8a5.887,5.887,0,0,1,.527-2.795,2.47,2.47,0,0,1,2.373-1.266,2.22,2.22,0,0,1,2.267,1.424,8.516,8.516,0,0,1,.317,2.742v7.7h4.9Z" transform="translate(-43 -61)"/>
</svg>
