<?xml version="1.0" encoding="utf-8"?>
<!-- Generator: Adobe Illustrator 22.1.0, SVG Export Plug-In . SVG Version: 6.00 Build 0)  -->
<!DOCTYPE svg PUBLIC "-//W3C//DTD SVG 1.1//EN" "http://www.w3.org/Graphics/SVG/1.1/DTD/svg11.dtd">
<svg version="1.1" id="Layer_1" xmlns="http://www.w3.org/2000/svg" xmlns:xlink="http://www.w3.org/1999/xlink" x="0px" y="0px"
	 viewBox="0 0 1024 768" style="enable-background:new 0 0 1024 768;" xml:space="preserve">
<style type="text/css">
	.st0{fill:#FFFFFF;}
</style>
<g>
	<path class="st0" d="M509.6,377.6c-0.3-0.2-0.7-0.3-1.1-0.4c-0.5,0-1,0.2-1.4,0.6c-0.3,0.4-0.5,0.9-0.4,1.4c0,0.7,0.2,1.4,0.6,2.2
		c0.2,0.4,0.5,0.7,0.8,0.9c0.3,0.2,0.7,0.4,1.1,0.4c0.5,0,1-0.2,1.3-0.6c0.2-0.2,0.3-0.5,0.3-0.8c0-0.3,0-0.5,0-0.7
		c0-0.8-0.2-1.5-0.6-2.3C510.2,378.1,509.9,377.8,509.6,377.6z"/>
	<path class="st0" d="M509.5,385.9c-0.1,0-0.4,0-0.8,0c-0.4,0.1-0.8,0.1-1.3,0.3c-0.1,0-0.2,0.1-0.4,0.2c-0.2,0.1-0.4,0.2-0.6,0.4
		c-0.2,0.2-0.3,0.4-0.5,0.6c-0.1,0.2-0.2,0.5-0.2,0.9c0,0.7,0.3,1.3,1,1.7c0.6,0.4,1.4,0.7,2.5,0.7c1,0,1.7-0.2,2.2-0.6
		c0.5-0.4,0.7-0.9,0.7-1.5c0-0.5-0.2-0.9-0.5-1.3c-0.4-0.3-0.9-0.8-1.7-1.3C509.8,385.9,509.7,385.9,509.5,385.9z"/>
	<path class="st0" d="M496,368v32h32v-32H496z M511.8,377.6c0.2,0.2,0.3,0.3,0.4,0.6c0.1,0.2,0.3,0.5,0.4,0.7c0.1,0.3,0.1,0.6,0.1,1
		c0,0.7-0.2,1.3-0.5,1.7c-0.2,0.2-0.3,0.4-0.5,0.6c-0.2,0.2-0.4,0.3-0.6,0.5c-0.1,0.1-0.2,0.3-0.3,0.4c-0.1,0.2-0.2,0.3-0.2,0.6
		c0,0.2,0.1,0.4,0.2,0.5c0.1,0.1,0.2,0.2,0.3,0.3l0.7,0.5c0.4,0.3,0.8,0.7,1.1,1.1c0.3,0.4,0.5,1,0.5,1.6c0,0.9-0.4,1.8-1.3,2.5
		c-0.9,0.8-2.2,1.1-3.9,1.2c-1.4,0-2.5-0.3-3.2-0.9c-0.7-0.5-1.1-1.2-1.1-1.9c0-0.4,0.1-0.8,0.3-1.2c0.2-0.4,0.6-0.8,1.2-1.2
		c0.7-0.4,1.3-0.6,2.1-0.7c0.7-0.1,1.3-0.2,1.8-0.2c-0.1-0.2-0.3-0.4-0.4-0.6c-0.1-0.2-0.2-0.4-0.2-0.7c0-0.2,0-0.3,0.1-0.4
		c0-0.1,0.1-0.2,0.1-0.3c-0.2,0-0.4,0-0.6,0c-1.1,0-1.9-0.3-2.5-1c-0.6-0.6-0.9-1.3-0.9-2.1c0-1,0.4-1.8,1.3-2.6
		c0.6-0.5,1.2-0.8,1.8-0.9c0.6-0.1,1.2-0.2,1.7-0.2h4l-1.2,0.7h-1.2C511.5,377.4,511.6,377.5,511.8,377.6z M520,384.6h-2.3v2.3h-1.1
		v-2.3h-2.3v-1.1h2.3v-2.3h1.1v2.3h2.3V384.6z"/>
</g>
</svg>
