<?xml version="1.0" encoding="utf-8"?>
<!-- Generator: Adobe Illustrator 22.1.0, SVG Export Plug-In . SVG Version: 6.00 Build 0)  -->
<!DOCTYPE svg PUBLIC "-//W3C//DTD SVG 1.1//EN" "http://www.w3.org/Graphics/SVG/1.1/DTD/svg11.dtd">
<svg version="1.1" id="Layer_1" xmlns="http://www.w3.org/2000/svg" xmlns:xlink="http://www.w3.org/1999/xlink" x="0px" y="0px"
	 viewBox="0 0 55 55" style="enable-background:new 0 0 55 55;" xml:space="preserve">
<style type="text/css">
	.st0{fill:#FFFFFF;}
</style>
<polygon class="st0" points="24.7,31.1 32.1,27.2 24.7,23.3 "/>
<path class="st0" d="M0,0v55h55V0H0z M41.3,28.5c0,2.2-0.3,4.5-0.3,4.5s-0.3,1.9-1.1,2.7c-1,1.1-2.2,1.1-2.8,1.2
	c-3.8,0.3-9.6,0.3-9.6,0.3s-7.1-0.1-9.3-0.3c-0.6-0.1-2-0.1-3-1.2C14.3,34.9,14,33,14,33s-0.3-2.2-0.3-4.5v-2.1
	c0-2.2,0.3-4.5,0.3-4.5s0.3-1.9,1.1-2.7c1-1.1,2.2-1.1,2.8-1.2c3.8-0.3,9.6-0.3,9.6-0.3h0c0,0,5.8,0,9.6,0.3
	c0.5,0.1,1.7,0.1,2.8,1.2C40.7,20.1,41,22,41,22s0.3,2.2,0.3,4.5V28.5z"/>
</svg>
