<svg xmlns="http://www.w3.org/2000/svg" width="55" height="55" viewBox="0 0 55 55">
  <metadata><?xpacket begin="﻿" id="W5M0MpCehiHzreSzNTczkc9d"?>
<x:xmpmeta xmlns:x="adobe:ns:meta/" x:xmptk="Adobe XMP Core 5.6-c140 79.160451, 2017/05/06-01:08:21        ">
   <rdf:RDF xmlns:rdf="http://www.w3.org/1999/02/22-rdf-syntax-ns#">
      <rdf:Description rdf:about=""/>
   </rdf:RDF>
</x:xmpmeta>
                                                                                                    
                                                                                                    
                                                                                                    
                                                                                                    
                                                                                                    
                                                                                                    
                                                                                                    
                                                                                                    
                                                                                                    
                                                                                                    
                                                                                                    
                                                                                                    
                                                                                                    
                                                                                                    
                                                                                                    
                                                                                                    
                                                                                                    
                                                                                                    
                                                                                                    
                                                                                                    
                           
<?xpacket end="w"?></metadata>
<defs>
    <style>
      .cls-1 {
        fill: #fff;
        fill-rule: evenodd;
      }
    </style>
  </defs>
  <path id="icon_GP" class="cls-1" d="M43,61H98v55H43V61ZM73.984,84.645H64.439v3.533h5.748a5.8,5.8,0,0,1-2.531,3.533,6.324,6.324,0,0,1-3.217.791,6.234,6.234,0,0,1-5.432-3.164,6.554,6.554,0,0,1,0-6.434,6.234,6.234,0,0,1,5.432-3.164,5.532,5.532,0,0,1,4.008,1.529l2.742-2.637A9.482,9.482,0,0,0,64.439,76a9.912,9.912,0,0,0-5.089,1.371,10.047,10.047,0,0,0-3.691,3.691,10.2,10.2,0,0,0,0,10.125,10.048,10.048,0,0,0,3.691,3.691,9.912,9.912,0,0,0,5.089,1.371A10.021,10.021,0,0,0,69.5,94.981a8.773,8.773,0,0,0,3.428-3.507,10.631,10.631,0,0,0,1.213-5.142A9.741,9.741,0,0,0,73.984,84.645Zm9.756,0.369h2.953v2.953H83.739V90.92H80.786V87.967h-2.9V85.014h2.9V82.061h2.953v2.953Z" transform="translate(-43 -61)"/>
</svg>
