<svg xmlns="http://www.w3.org/2000/svg" width="55" height="55" viewBox="0 0 55 55">
  <metadata><?xpacket begin="﻿" id="W5M0MpCehiHzreSzNTczkc9d"?>
<x:xmpmeta xmlns:x="adobe:ns:meta/" x:xmptk="Adobe XMP Core 5.6-c140 79.160451, 2017/05/06-01:08:21        ">
   <rdf:RDF xmlns:rdf="http://www.w3.org/1999/02/22-rdf-syntax-ns#">
      <rdf:Description rdf:about=""/>
   </rdf:RDF>
</x:xmpmeta>
                                                                                                    
                                                                                                    
                                                                                                    
                                                                                                    
                                                                                                    
                                                                                                    
                                                                                                    
                                                                                                    
                                                                                                    
                                                                                                    
                                                                                                    
                                                                                                    
                                                                                                    
                                                                                                    
                                                                                                    
                                                                                                    
                                                                                                    
                                                                                                    
                                                                                                    
                                                                                                    
                           
<?xpacket end="w"?></metadata>
<defs>
    <style>
      .cls-1 {
        fill: #fff;
        fill-rule: evenodd;
      }
    </style>
  </defs>
  <path id="icon_TW" class="cls-1" d="M43,61H98v55H43V61ZM81.208,83.637A12.172,12.172,0,0,0,84,80.736a11.891,11.891,0,0,1-3.164.9,5.5,5.5,0,0,0,2.426-3.059,11.266,11.266,0,0,1-3.533,1.318,6.261,6.261,0,0,0-1.819-1.266,5.282,5.282,0,0,0-2.241-.475,5.348,5.348,0,0,0-2.742.738,5.419,5.419,0,0,0-2,2.03,5.49,5.49,0,0,0-.738,2.769,7.677,7.677,0,0,0,.105,1.266,15.491,15.491,0,0,1-11.391-5.8,5.371,5.371,0,0,0-.105,5.432,6.142,6.142,0,0,0,1.793,2,5.213,5.213,0,0,1-2.478-.738v0.105a5.309,5.309,0,0,0,1.266,3.481,5.58,5.58,0,0,0,3.164,1.951,7.034,7.034,0,0,1-1.477.158q-0.475,0-1-.053a5.506,5.506,0,0,0,1.925,2.716,5.151,5.151,0,0,0,3.243,1.081,10.978,10.978,0,0,1-6.908,2.373q-0.738,0-1.318-.053a15.961,15.961,0,0,0,17.086,0,15.059,15.059,0,0,0,5.326-5.959,15.636,15.636,0,0,0,1.846-7.33A3.146,3.146,0,0,0,81.208,83.637Z" transform="translate(-43 -61)"/>
</svg>
