<?xml version="1.0" encoding="utf-8"?>
<!-- Generator: Adobe Illustrator 21.1.0, SVG Export Plug-In . SVG Version: 6.00 Build 0)  -->
<!DOCTYPE svg PUBLIC "-//W3C//DTD SVG 1.1//EN" "http://www.w3.org/Graphics/SVG/1.1/DTD/svg11.dtd">
<svg version="1.1" id="Layer_1" xmlns="http://www.w3.org/2000/svg" xmlns:xlink="http://www.w3.org/1999/xlink" x="0px" y="0px"
	 viewBox="0 0 16 16" style="enable-background:new 0 0 16 16;" xml:space="preserve">
<style type="text/css">
	.st0{fill:#FFFFFF;}
</style>
<g>
	<path class="st0" d="M10.2,5.8C10,5.6,9.8,5.4,9.6,5.3C9.5,5.2,9.3,5.2,9.2,5.2C9.1,5.2,9,5.2,8.9,5.3L8.2,6C8,6.2,7.9,6.5,7.9,6.9
		c0,0.2,0.1,0.3,0.2,0.4c0.1,0.1,0.2,0.2,0.3,0.3c0.4,0.4,0.7,1,0.7,1.6s-0.2,1.2-0.7,1.6l-2.1,2.1c-0.4,0.4-1,0.7-1.6,0.7
		s-1.2-0.2-1.6-0.7s-0.7-1-0.6-1.6c0-0.6,0.2-1.1,0.7-1.6l0.4-0.4c0.1-0.1,0.2-0.3,0.1-0.5C3.5,8.2,3.4,7.6,3.4,7.1
		c0-0.2-0.1-0.4-0.3-0.4C2.9,6.5,2.7,6.6,2.6,6.7L1.4,7.9c-0.6,0.6-1,1.3-1.2,2.1c-0.2,0.8-0.2,1.6,0,2.4c0.2,0.8,0.6,1.5,1.2,2.1
		c0.6,0.6,1.3,1,2.1,1.2c0.8,0.2,1.6,0.2,2.4,0c0.8-0.2,1.5-0.6,2.1-1.2l2.1-2.1c0.6-0.6,1-1.3,1.2-2.1s0.2-1.6,0-2.4
		S10.8,6.4,10.2,5.8z M14.6,1.4c0.6,0.6,1,1.3,1.2,2.2c0.2,0.8,0.2,1.6,0,2.4c-0.2,0.8-0.6,1.5-1.2,2.1l-1.2,1.2
		c-0.1,0.1-0.3,0.2-0.5,0.1c-0.2-0.1-0.3-0.2-0.3-0.4c0-0.6-0.1-1.1-0.3-1.7c-0.1-0.2,0-0.4,0.1-0.5l0.4-0.4c0.4-0.4,0.7-1,0.7-1.6
		s-0.2-1.1-0.6-1.6c-0.4-0.4-1-0.7-1.6-0.7s-1.2,0.2-1.6,0.7L7.6,5.3c-0.4,0.4-0.7,1-0.7,1.6S7.1,8,7.6,8.4c0.1,0.1,0.2,0.2,0.3,0.3
		C8,8.8,8.1,8.9,8.1,9.1C8.1,9.5,8,9.8,7.8,10l-0.7,0.7c-0.1,0.1-0.2,0.1-0.3,0.1c-0.1,0-0.2,0-0.3-0.1c-0.2-0.2-0.4-0.3-0.7-0.5
		c-0.6-0.6-1-1.3-1.2-2.2s-0.2-1.6,0-2.4s0.6-1.5,1.2-2.1l2.1-2.1c0.6-0.6,1.3-1,2.1-1.2s1.6-0.2,2.4,0S14,0.8,14.6,1.4z"/>
</g>
</svg>
