<?xml version="1.0" encoding="utf-8"?>
<!-- Generator: Adobe Illustrator 22.1.0, SVG Export Plug-In . SVG Version: 6.00 Build 0)  -->
<!DOCTYPE svg PUBLIC "-//W3C//DTD SVG 1.1//EN" "http://www.w3.org/Graphics/SVG/1.1/DTD/svg11.dtd">
<svg version="1.1" id="Layer_1" xmlns="http://www.w3.org/2000/svg" xmlns:xlink="http://www.w3.org/1999/xlink" x="0px" y="0px"
	 viewBox="0 0 32 32" style="enable-background:new 0 0 32 32;" xml:space="preserve">
<style type="text/css">
	.st0{fill:#FFFFFF;}
</style>
<title>Asset 10</title>
<path class="st0" d="M0,0v32h32V0H0z M22.4,12.7c0,0.1,0,0.3,0,0.4c0,5.2-4.2,9.3-9.4,9.3c-1.8,0-3.5-0.5-5-1.5c0.3,0,0.5,0,0.8,0
	c1.5,0,2.9-0.5,4.1-1.4c-1.4,0-2.6-0.9-3.1-2.3c0.5,0.1,1,0.1,1.5-0.1C9.7,17,8.6,15.6,8.6,14c0.5,0.3,1,0.4,1.5,0.4
	c-1.4-1-1.9-2.9-1-4.4c1.7,2.1,4.1,3.3,6.8,3.4c-0.1-0.2-0.1-0.5-0.1-0.8c0-1.8,1.5-3.3,3.3-3.3c0.9,0,1.8,0.4,2.4,1
	c0.7-0.2,1.4-0.4,2.1-0.8c-0.2,0.8-0.8,1.4-1.5,1.8c0.6-0.1,1.3-0.3,1.9-0.5C23.6,11.7,23,12.3,22.4,12.7z"/>
</svg>
